<?xml version="1.0" encoding="iso-8859-1"?>
<!DOCTYPE svg PUBLIC "-//W3C//DTD SVG 1.1//EN" "http://www.w3.org/Graphics/SVG/1.1/DTD/svg11.dtd">
<svg 
 version="1.1" xmlns="http://www.w3.org/2000/svg" xmlns:xlink="http://www.w3.org/1999/xlink" x="0px" y="0px" width="512px"
	 height="512px" viewBox="0 0 512 512" style="enable-background:new 0 0 512 512;" xml:space="preserve"
><g id="afcae5a789ccd549f9c6e2a2f810397c"><g></g><path style="display: inline; fill-rule: evenodd; clip-rule: evenodd;" d="M466.943,231.036c-22.701,4.479-39.9,4.398-53.013,1.967
		c31.335,23.43,50.105,53.084,50.105,85.367c0,75.777-62.997,137.212-230.48,137.212c-161.793,0-211.042-105.61-219.875-137.882
		c0,0-21.034-61.7-9.959-129.177c5.394-32.861,31.176-56.602,31.176-56.602s22.922,43.258,54.54,59.156
		c18.501,9.302,41.311,6.225,41.311,6.225l-0.141,0.149c29.921-9.939,64.396-16.227,102.375-16.285
		c-1.376-6.762-2.109-13.757-2.109-20.926c0-57.343,46.486-103.823,103.824-103.823c55.816,0,101.327,44.044,103.71,99.265
		c0.034,0.008,0.116,0.021,0.116,0.021s5.228,15.977,22.478,21.313c20.727,6.412,50.493,2.827,50.493,2.827
		S513.021,221.945,466.943,231.036z"></path></g></svg>